<svg xmlns="http://www.w3.org/2000/svg" viewBox="0 0 241.63 55.07"><defs><style>.cls-1,.cls-2{fill:#fff;}.cls-2{font-size:48.15px;font-family:MyriadPro-Regular, Myriad Pro;}.cls-3{fill:none;stroke:#fff;stroke-width:0.72px;}</style></defs><title>Asset 3</title><g id="Layer_2" data-name="Layer 2"><g id="Layer_1-2" data-name="Layer 1"><path class="cls-1" d="M14.39,10.86l.05,3.65v.25h0a1.54,1.54,0,0,1,.21-.38c1.84-2,4.17-3.94,9.69-3.94,5.29,0,8.71,4.49,8.85,7.32V42.82H28.72v-23c0-3.52-3.09-6.07-6.88-6.07-3.15,0-7.19,2.83-7.33,5.7V42.82H10v-32h4.41Zm60.92,25.8c3.1,2.82,5.9,4.27,9.47,4.27s6.91-1.76,6.91-5.2c0-2.87-2.55-4.55-7.1-6.48-3.86-1.67-6.73-2.84-8.23-5.25a18.92,18.92,0,0,1,.28,3.24c0,9.32-6.76,16.87-15.1,16.87s-15.1-7.55-15.1-16.87a17.53,17.53,0,0,1,6.23-13.65H42.47V42.82H37.93V38c0-.08,0-.17,0-.26V13.59h-4v-3H38c.52-6.13,4.33-9.6,9.59-9.6,3.41,0,5.29.36,6.37.86V6c0,.31,0,.5,0,.5h-.16c-1.64-1.52-3.26-2.64-7-2.64-3,0-5,2.45-4.31,6.73h17a13.83,13.83,0,0,1,2.15-.17c6.05,0,11.27,4,13.68,9.71,0-.32,0-.65,0-1,0-6,5.8-8.53,11.82-8.52h.68a30,30,0,0,1,7,1.14l1.68,4.11,1.9,4.67L103.36,33l.6,2,.67-2,6.46-16c1.19-4.4,5.91-6.31,11.12-6.3a18.64,18.64,0,0,1,6.8,1.11v4.84c-2.83-2.05-4.85-3.25-8.06-3.25-2.82,0-6.2,1.25-6.2,5.39-.06,3.12,1.81,3.69,7.3,6.41,4.51,2,8.67,4.12,8.69,9.12,0,8.34-8.22,9.79-12.23,9.8-3.57,0-6.85-.88-8.67-2.4V36.18l.29.24c3.25,3,6.12,4.61,9.83,4.61s6.91-1.76,6.91-5.2c0-2.87-2.55-4.55-7.1-6.48-4.35-1.88-7.2-3.13-8.37-6.25-1.77,4.32-10,24.41-12,28.71H95l1.05-2L97,48.11,97,48c1.12-2.19,2.74-5.64,4.18-8.93L92.63,18.45l-.48-1.1c-.66-1.5-1.27-2.88-3.12-3.58a10.07,10.07,0,0,0-3.27-.51c-2.82,0-6.42,1.25-6.42,5.39-.05,3.12,2,3.68,7.52,6.41,4.51,2,8.67,4.12,8.69,9.12,0,8.34-8.22,9.79-12.23,9.8a15.41,15.41,0,0,1-8-1.92Zm21-20.83c.06.17.13.34.21.53l1.69,4.14Zm-.29,34c.23-.39.55-1,.93-1.74Zm-3.42-31.4c.13.29-.18-.43-.18-.43ZM51.06,27.62c.13,7.58,4.85,13.65,10.55,13.55s10.21-6.33,10.08-13.92S66.84,13.6,61.14,13.7,50.93,20,51.06,27.62M0,6.15V1.08H5V42.82H0V6.15ZM135.31,2.67h.9c.49,0,.76.2.76.6s-.31.58-.69.58h-1Zm-.81,3.7h.81V4.57h1l.71,1.8h.9L137,4.44a1.07,1.07,0,0,0,.78-1.1c0-1.3-1-1.45-1.82-1.45h-1.5Zm-2-2.13a3.61,3.61,0,1,1,3.61,3.61,3.62,3.62,0,0,1-3.61-3.61m3.61,4.25a4.24,4.24,0,1,0-4.24-4.25,4.25,4.25,0,0,0,4.24,4.25"/><text class="cls-2" transform="translate(164.55 43.03)">ETA</text><line class="cls-3" x1="152.07" y1="0.58" x2="152.07" y2="44.09"/></g></g></svg>